#N canvas 197 23 1213 851 10;
#X obj 305 212 metro;
#X floatatom 403 138 5 0 0 0 - - -, f 5;
#X msg 275 170 1;
#X msg 235 170 0;
#X obj 306 244 float;
#X obj 352 245 + 1;
#X obj 88 434 readsf~;
#X obj 220 792 throw~ outR;
#X msg 33 407 start;
#X msg 84 405 open Kick.wav;
#X obj 85 379 delay 1;
#X obj 199 58 r aux;
#X obj 87 346 r kick;
#X obj 444 437 readsf~;
#X msg 383 405 start;
#X obj 447 377 delay 1;
#X msg 444 401 open Snare.wav;
#X obj 449 344 r snare;
#X floatatom 306 287 5 0 0 0 - - -, f 5;
#X obj 844 430 readsf~;
#X msg 788 395 start;
#X obj 847 370 delay 1;
#X obj 849 337 r hihat;
#X msg 844 394 open HiHat.wav;
#X obj 199 79 sel 1;
#X obj 228 101 + 1;
#X obj 202 146 sel 0;
#X obj 277 147 sel 1;
#X obj 199 101 i 0;
#X obj 196 124 % 2;
#X obj 306 265 % 16;
#X obj 240 434 readsf~;
#X msg 185 407 start;
#X obj 237 379 delay 1;
#X msg 236 405 open KickAccent.wav;
#X obj 239 346 r kickaccent;
#N canvas 7 23 1080 855 presets 0;
#X obj 70 312 inlet;
#X obj 407 74 s kick;
#X obj 656 77 s hihat;
#X obj 461 74 s kickaccent;
#X obj 669 127 s snare;
#X obj 505 126 s hihat;
#X obj 408 126 s kickaccent;
#X obj 136 58 r notes unpack;
#X obj 136 86 unpack;
#X floatatom 134 153 5 0 0 0 - - -, f 5;
#X msg 343 50 1;
#X msg 375 50 0;
#X obj 288 51 spigot;
#X msg 342 111 1;
#X msg 374 111 0;
#X obj 285 112 spigot;
#X msg 861 77 Rhythm Rock 1A;
#X obj 981 86 s screenLine5;
#X msg 861 124 Rhythm Rock 1B;
#X obj 631 179 s kick;
#X obj 680 179 s hihat;
#X obj 409 172 s kickaccent;
#X msg 343 169 1;
#X msg 375 169 0;
#X obj 286 171 spigot;
#X msg 856 181 Rhythm Rock 2A;
#X obj 414 232 s kick;
#X obj 577 236 s hihat;
#X obj 468 236 s kickaccent;
#X msg 343 227 1;
#X msg 375 227 0;
#X obj 287 228 spigot;
#X msg 857 225 Rhythm Rock 2B;
#X obj 569 296 s hihat;
#X obj 474 297 s kickaccent;
#X msg 345 295 1;
#X msg 377 297 0;
#X obj 283 294 spigot;
#X obj 628 296 s snare;
#X msg 856 297 Rhythm Rock 3A;
#X obj 419 345 s kick;
#X obj 625 350 s hihat;
#X obj 527 349 s kickaccent;
#X msg 343 342 1;
#X msg 375 344 0;
#X obj 282 343 spigot;
#X obj 784 348 s snare;
#X msg 853 346 Rhythm Rock 3B;
#X obj 421 321 sel 0 1 2 3 4 5 6 7 8 9 10 11 12 13 14 15, f 78;
#X obj 424 263 sel 0 1 2 3 4 5 6 7 8 9 10 11 12 13 14 15, f 78;
#X obj 410 205 sel 0 1 2 3 4 5 6 7 8 9 10 11 12 13 14 15, f 78;
#X obj 411 150 sel 0 1 2 3 4 5 6 7 8 9 10 11 12 13 14 15, f 78;
#X obj 406 95 sel 0 1 2 3 4 5 6 7 8 9 10 11 12 13 14 15, f 76;
#X obj 407 49 sel 0 1 2 3 4 5 6 7 8 9 10 11 12 13 14 15, f 77;
#X obj 417 406 s kick;
#X msg 339 403 1;
#X msg 371 405 0;
#X obj 278 404 spigot;
#X obj 416 374 sel 0 1 2 3 4 5 6 7 8 9 10 11 12 13 14 15, f 78;
#X msg 866 398 Rhythm Rock 4A;
#X obj 796 400 s cymbal;
#X obj 613 404 s hihat;
#X obj 494 402 s kickaccent;
#X obj 420 463 s kick;
#X msg 337 469 1;
#X msg 369 471 0;
#X obj 276 470 spigot;
#X obj 645 468 s snare;
#X obj 414 433 sel 0 1 2 3 4 5 6 7 8 9 10 11 12 13 14 15, f 78;
#X obj 802 466 s cymbal;
#X obj 580 467 s hihat;
#X obj 473 468 s kickaccent;
#X msg 343 584 1;
#X msg 375 586 0;
#X obj 282 585 spigot;
#X obj 409 556 sel 0 1 2 3 4 5 6 7 8 9 10 11 12 13 14 15, f 78;
#X obj 403 592 s kick;
#X obj 566 595 s hihat;
#X obj 465 594 s kickaccent;
#X msg 894 589 Rhythm Disco 1B;
#X msg 340 526 1;
#X msg 372 528 0;
#X obj 279 527 spigot;
#X obj 418 494 sel 0 1 2 3 4 5 6 7 8 9 10 11 12 13 14 15, f 78;
#X obj 413 531 s kick;
#X obj 762 534 s cymbal;
#X obj 585 535 s hihat;
#X obj 479 535 s kickaccent;
#X obj 827 593 s cymbal;
#X obj 552 75 s snareaccent;
#X obj 565 126 s snareaccent;
#X obj 530 180 s snareaccent;
#X obj 639 236 s snareaccent;
#X obj 692 297 s snareaccent;
#X obj 423 296 s kick;
#X obj 684 349 s snareaccent;
#X obj 693 402 s snareaccent;
#X msg 872 466 Rhythm Rock 4B;
#X obj 704 467 s snareaccent;
#X obj 649 534 s snareaccent;
#X msg 888 528 Rhythm Disco 1A;
#X obj 724 594 s hihataccent;
#X msg 339 645 1;
#X msg 371 647 0;
#X obj 278 646 spigot;
#X obj 405 617 sel 0 1 2 3 4 5 6 7 8 9 10 11 12 13 14 15, f 78;
#X msg 913 650 Rhythm Disco 2A;
#X obj 509 650 s hihat;
#X obj 408 649 s kickaccent;
#X obj 780 650 s cymbal;
#X obj 677 651 s hihataccent;
#X obj 853 650 s conga;
#X obj 625 595 s snareaccent;
#X obj 573 651 s snareaccent;
#X msg 340 706 1;
#X msg 372 708 0;
#X obj 279 707 spigot;
#X obj 406 678 sel 0 1 2 3 4 5 6 7 8 9 10 11 12 13 14 15, f 78;
#X obj 495 709 s hihat;
#X obj 404 707 s kickaccent;
#X obj 767 712 s cymbal;
#X obj 659 710 s hihataccent;
#X obj 831 712 s conga;
#X obj 561 710 s snareaccent;
#X msg 902 711 Rhythm Disco 2B;
#X obj 341 25 sel 60;
#X obj 341 89 sel 61;
#X obj 342 147 sel 62;
#X obj 342 205 sel 63;
#X obj 342 261 sel 64;
#X obj 341 317 sel 65;
#X obj 336 369 sel 66;
#X obj 334 435 sel 67;
#X obj 337 492 sel 68;
#X obj 340 550 sel 69;
#X obj 336 611 sel 70;
#X obj 337 672 sel 71;
#X obj 134 113 spigot;
#X connect 0 0 12 0;
#X connect 0 0 15 0;
#X connect 0 0 24 0;
#X connect 0 0 31 0;
#X connect 0 0 37 0;
#X connect 0 0 45 0;
#X connect 0 0 57 0;
#X connect 0 0 66 0;
#X connect 0 0 82 0;
#X connect 0 0 74 0;
#X connect 0 0 104 0;
#X connect 0 0 116 0;
#X connect 7 0 8 0;
#X connect 8 0 137 0;
#X connect 8 1 137 1;
#X connect 9 0 125 0;
#X connect 9 0 126 0;
#X connect 9 0 127 0;
#X connect 9 0 128 0;
#X connect 9 0 129 0;
#X connect 9 0 130 0;
#X connect 9 0 131 0;
#X connect 9 0 132 0;
#X connect 9 0 133 0;
#X connect 9 0 134 0;
#X connect 9 0 135 0;
#X connect 9 0 136 0;
#X connect 10 0 12 1;
#X connect 11 0 12 1;
#X connect 12 0 53 0;
#X connect 13 0 15 1;
#X connect 14 0 15 1;
#X connect 15 0 52 0;
#X connect 16 0 17 0;
#X connect 18 0 17 0;
#X connect 22 0 24 1;
#X connect 23 0 24 1;
#X connect 24 0 51 0;
#X connect 25 0 17 0;
#X connect 29 0 31 1;
#X connect 30 0 31 1;
#X connect 31 0 50 0;
#X connect 32 0 17 0;
#X connect 35 0 37 1;
#X connect 36 0 37 1;
#X connect 37 0 49 0;
#X connect 39 0 17 0;
#X connect 43 0 45 1;
#X connect 44 0 45 1;
#X connect 45 0 48 0;
#X connect 47 0 17 0;
#X connect 48 0 41 0;
#X connect 48 0 42 0;
#X connect 48 2 41 0;
#X connect 48 3 40 0;
#X connect 48 4 41 0;
#X connect 48 4 95 0;
#X connect 48 5 40 0;
#X connect 48 6 41 0;
#X connect 48 7 46 0;
#X connect 48 8 41 0;
#X connect 48 8 40 0;
#X connect 48 10 41 0;
#X connect 48 10 42 0;
#X connect 48 12 41 0;
#X connect 48 12 95 0;
#X connect 48 14 41 0;
#X connect 48 15 40 0;
#X connect 49 0 33 0;
#X connect 49 0 34 0;
#X connect 49 2 33 0;
#X connect 49 4 33 0;
#X connect 49 4 34 0;
#X connect 49 4 93 0;
#X connect 49 6 33 0;
#X connect 49 7 38 0;
#X connect 49 8 33 0;
#X connect 49 8 94 0;
#X connect 49 10 33 0;
#X connect 49 10 34 0;
#X connect 49 12 33 0;
#X connect 49 12 93 0;
#X connect 49 14 33 0;
#X connect 49 16 33 0;
#X connect 50 0 26 0;
#X connect 50 0 27 0;
#X connect 50 2 27 0;
#X connect 50 2 26 0;
#X connect 50 4 27 0;
#X connect 50 4 92 0;
#X connect 50 6 27 0;
#X connect 50 6 26 0;
#X connect 50 8 27 0;
#X connect 50 10 27 0;
#X connect 50 10 28 0;
#X connect 50 12 27 0;
#X connect 50 12 92 0;
#X connect 50 14 27 0;
#X connect 51 0 20 0;
#X connect 51 0 21 0;
#X connect 51 2 20 0;
#X connect 51 4 20 0;
#X connect 51 4 91 0;
#X connect 51 6 20 0;
#X connect 51 8 20 0;
#X connect 51 8 19 0;
#X connect 51 10 20 0;
#X connect 51 10 21 0;
#X connect 51 12 20 0;
#X connect 51 12 91 0;
#X connect 51 14 20 0;
#X connect 52 0 5 0;
#X connect 52 0 6 0;
#X connect 52 2 5 0;
#X connect 52 4 5 0;
#X connect 52 4 90 0;
#X connect 52 6 5 0;
#X connect 52 6 4 0;
#X connect 52 8 5 0;
#X connect 52 8 6 0;
#X connect 52 10 5 0;
#X connect 52 12 5 0;
#X connect 52 12 90 0;
#X connect 52 14 5 0;
#X connect 53 0 2 0;
#X connect 53 0 3 0;
#X connect 53 2 2 0;
#X connect 53 4 2 0;
#X connect 53 4 89 0;
#X connect 53 6 2 0;
#X connect 53 6 1 0;
#X connect 53 8 2 0;
#X connect 53 8 3 0;
#X connect 53 10 2 0;
#X connect 53 12 2 0;
#X connect 53 12 89 0;
#X connect 53 14 2 0;
#X connect 55 0 57 1;
#X connect 56 0 57 1;
#X connect 57 0 58 0;
#X connect 58 0 61 0;
#X connect 58 0 62 0;
#X connect 58 1 61 0;
#X connect 58 2 60 0;
#X connect 58 2 61 0;
#X connect 58 3 61 0;
#X connect 58 4 61 0;
#X connect 58 4 96 0;
#X connect 58 5 61 0;
#X connect 58 6 61 0;
#X connect 58 7 61 0;
#X connect 58 7 54 0;
#X connect 58 8 61 0;
#X connect 58 8 62 0;
#X connect 58 9 61 0;
#X connect 58 10 54 0;
#X connect 58 10 61 0;
#X connect 58 10 60 0;
#X connect 58 11 61 0;
#X connect 58 12 61 0;
#X connect 58 12 96 0;
#X connect 58 13 61 0;
#X connect 58 14 61 0;
#X connect 58 15 54 0;
#X connect 58 15 61 0;
#X connect 59 0 17 0;
#X connect 64 0 66 1;
#X connect 65 0 66 1;
#X connect 66 0 68 0;
#X connect 68 0 70 0;
#X connect 68 0 71 0;
#X connect 68 1 70 0;
#X connect 68 2 69 0;
#X connect 68 2 70 0;
#X connect 68 2 71 0;
#X connect 68 3 70 0;
#X connect 68 4 70 0;
#X connect 68 4 98 0;
#X connect 68 5 70 0;
#X connect 68 5 63 0;
#X connect 68 6 70 0;
#X connect 68 7 70 0;
#X connect 68 7 67 0;
#X connect 68 8 70 0;
#X connect 68 8 71 0;
#X connect 68 9 70 0;
#X connect 68 10 70 0;
#X connect 68 10 69 0;
#X connect 68 11 70 0;
#X connect 68 12 70 0;
#X connect 68 12 98 0;
#X connect 68 13 70 0;
#X connect 68 14 70 0;
#X connect 68 15 63 0;
#X connect 68 15 70 0;
#X connect 72 0 74 1;
#X connect 73 0 74 1;
#X connect 74 0 75 0;
#X connect 75 0 76 0;
#X connect 75 0 77 0;
#X connect 75 2 77 0;
#X connect 75 2 88 0;
#X connect 75 4 77 0;
#X connect 75 4 112 0;
#X connect 75 6 76 0;
#X connect 75 6 77 0;
#X connect 75 8 76 0;
#X connect 75 8 77 0;
#X connect 75 10 101 0;
#X connect 75 12 77 0;
#X connect 75 13 78 0;
#X connect 75 13 76 0;
#X connect 75 13 88 0;
#X connect 75 13 112 0;
#X connect 75 14 77 0;
#X connect 79 0 17 0;
#X connect 80 0 82 1;
#X connect 81 0 82 1;
#X connect 82 0 83 0;
#X connect 83 0 87 0;
#X connect 83 0 86 0;
#X connect 83 2 86 0;
#X connect 83 2 85 0;
#X connect 83 4 86 0;
#X connect 83 4 99 0;
#X connect 83 6 86 0;
#X connect 83 7 84 0;
#X connect 83 8 86 0;
#X connect 83 8 84 0;
#X connect 83 10 86 0;
#X connect 83 12 86 0;
#X connect 83 12 99 0;
#X connect 83 13 85 0;
#X connect 83 14 86 0;
#X connect 97 0 17 0;
#X connect 100 0 17 0;
#X connect 102 0 104 1;
#X connect 103 0 104 1;
#X connect 104 0 105 0;
#X connect 105 0 109 0;
#X connect 105 2 107 0;
#X connect 105 2 111 0;
#X connect 105 4 108 0;
#X connect 105 4 113 0;
#X connect 105 6 111 0;
#X connect 105 6 107 0;
#X connect 105 10 107 0;
#X connect 105 12 111 0;
#X connect 105 12 113 0;
#X connect 105 12 108 0;
#X connect 105 14 107 0;
#X connect 106 0 17 0;
#X connect 114 0 116 1;
#X connect 115 0 116 1;
#X connect 116 0 117 0;
#X connect 117 0 120 0;
#X connect 117 2 118 0;
#X connect 117 4 119 0;
#X connect 117 4 123 0;
#X connect 117 4 122 0;
#X connect 117 6 118 0;
#X connect 117 10 118 0;
#X connect 117 12 122 0;
#X connect 117 12 123 0;
#X connect 117 12 119 0;
#X connect 117 12 120 0;
#X connect 117 14 118 0;
#X connect 124 0 17 0;
#X connect 125 0 10 0;
#X connect 125 0 16 0;
#X connect 125 1 11 0;
#X connect 126 0 13 0;
#X connect 126 0 18 0;
#X connect 126 1 14 0;
#X connect 127 0 22 0;
#X connect 127 0 25 0;
#X connect 127 1 23 0;
#X connect 128 0 29 0;
#X connect 128 0 32 0;
#X connect 128 1 30 0;
#X connect 129 0 35 0;
#X connect 129 0 39 0;
#X connect 129 1 36 0;
#X connect 130 0 43 0;
#X connect 130 0 47 0;
#X connect 130 1 44 0;
#X connect 131 0 55 0;
#X connect 131 0 59 0;
#X connect 131 1 56 0;
#X connect 132 0 64 0;
#X connect 132 0 97 0;
#X connect 132 1 65 0;
#X connect 133 0 80 0;
#X connect 133 0 100 0;
#X connect 133 1 81 0;
#X connect 134 0 72 0;
#X connect 134 0 79 0;
#X connect 134 1 73 0;
#X connect 135 0 102 0;
#X connect 135 0 106 0;
#X connect 135 1 103 0;
#X connect 136 0 114 0;
#X connect 136 0 124 0;
#X connect 136 1 115 0;
#X connect 137 0 9 0;
#X restore 306 307 pd presets;
#X obj 835 577 readsf~;
#X msg 781 542 start;
#X obj 838 517 delay 1;
#X obj 840 484 r cymbal;
#X msg 835 541 open Cymbal.wav;
#X obj 623 432 readsf~;
#X msg 562 400 start;
#X obj 626 372 delay 1;
#X msg 623 396 open SnareAccent.wav;
#X obj 628 339 r snareaccent;
#X obj 1016 429 readsf~;
#X msg 960 394 start;
#X obj 1019 369 delay 1;
#X obj 1021 336 r hihataccent;
#X msg 1016 394 open HiHatAccent.wav;
#X obj 1019 575 readsf~;
#X msg 965 540 start;
#X obj 1022 515 delay 1;
#X obj 1024 482 r conga;
#X msg 1019 539 open Conga.wav;
#X obj 407 60 r knob1;
#X obj 406 112 + 60;
#X obj 406 90 * 140;
#X msg 351 138 60000;
#X obj 405 185 /;
#X obj 405 162 t b f;
#X obj 405 223 / 4;
#X obj 97 794 throw~ outL;
#X obj 311 65 loadbang;
#X obj 281 737 *~;
#X obj 527 755 dattorroplate~;
#X obj 551 721 loadbang;
#X text 741 674 Gain;
#X text 668 673 Damping;
#X text 595 669 Bandwith;
#X text 521 668 Predelay;
#X obj 90 196 s led;
#X msg 593 696 0.632;
#X obj 96 49 loadbang;
#X msg 87 83 0;
#X msg 351 97 120;
#X obj 487 140 s screenLine1;
#X obj 458 130 i;
#X obj 348 672 r knob2;
#X obj 347 693 * 100;
#X obj 347 758 s screenLine2;
#X obj 351 714 i;
#X msg 348 737 Reverb Amt: \$1 %;
#X obj 1015 703 readsf~;
#X msg 961 668 start;
#X obj 1018 643 delay 1;
#X obj 1020 610 r clave;
#X msg 1015 667 open Clave.wav;
#X obj 872 774 readsf~;
#X msg 818 739 start;
#X msg 872 738 open BongoHigh.wav;
#X obj 874 648 r bongohi;
#X obj 875 714 delay 1;
#X obj 621 584 readsf~;
#X msg 567 549 start;
#X obj 624 524 delay 1;
#X obj 623 458 r bongolo;
#X msg 621 548 open BongoLow.wav;
#X obj 585 475 bng 15 250 50 0 empty empty empty 17 7 0 10 -262144
-1 -1;
#X obj 826 658 bng 15 250 50 0 empty empty empty 17 7 0 10 -262144
-1 -1;
#N canvas 167 104 605 480 saturation 0;
#X obj 121 7 inlet~;
#X obj 237 209 -~;
#X obj 213 257 /~;
#X obj 206 369 outlet~;
#X obj 178 145 *~ -1;
#X obj 54 169 expr~ exp($v1*2.718);
#X obj 178 123 *~;
#X obj 319 106 inlet;
#X obj 42 213 expr~ (1/$v1)+$v1;
#X obj 296 168 expr~ exp($v1*2.718);
#X connect 0 0 6 0;
#X connect 1 0 2 0;
#X connect 2 0 3 0;
#X connect 4 0 9 0;
#X connect 5 0 1 0;
#X connect 5 0 8 0;
#X connect 6 0 5 0;
#X connect 6 0 4 0;
#X connect 7 0 6 1;
#X connect 8 0 2 1;
#X connect 9 0 1 1;
#X restore 221 704 pd saturation;
#X msg 488 98 Tempo: \$1 BPM;
#X obj 100 671 *~;
#X obj 163 673 *~;
#X obj 36 577 r knob3;
#X obj 32 606 swap 1;
#X obj 35 631 -;
#X msg 244 654 1.6;
#X obj 229 624 loadbang;
#X obj 691 124 r knob3;
#X obj 689 153 * 100;
#X obj 687 187 i;
#X obj 685 242 s screenLine3;
#X msg 685 213 Saturation: \$1 %;
#X obj 454 703 lop~ 1800;
#X obj 103 586 *~ 0.3;
#X msg 69 167 0;
#X msg 114 167 3;
#X obj 117 497 *~;
#X obj 172 483 r knob4;
#X obj 866 132 r knob4;
#X obj 862 162 * 100;
#X obj 854 192 i;
#X obj 854 275 s screenLine4;
#X msg 743 698 0.45;
#X obj 454 674 hip~ 800;
#X msg 530 691 40;
#X msg 665 698 0.9;
#X msg 844 235 Vol.BassDrum: \$1 %;
#N canvas 134 47 1287 653 presets2 0;
#X obj 47 226 inlet;
#X msg 889 126 Rhythm Mambo;
#X obj 610 228 s hihat;
#X obj 340 227 s kickaccent;
#X obj 728 230 s hihataccent;
#X obj 493 228 s conga;
#X obj 70 35 r notes unpack;
#X obj 70 63 unpack;
#X floatatom 68 130 5 0 0 0 - - -, f 5;
#X obj 673 229 s clave;
#X obj 443 225 s kick;
#X msg 279 237 1;
#X msg 311 239 0;
#X obj 218 238 spigot;
#X obj 338 197 sel 0 1 2 3 4 5 6 7 8 9 10 11 12 13 14 15, f 78;
#X obj 1181 221 s screenLine5;
#X msg 283 164 1;
#X msg 316 164 0;
#X obj 222 165 spigot;
#X obj 335 126 sel 0 1 2 3 4 5 6 7 8 9 10 11 12 13 14 15, f 78;
#X obj 721 171 s hihat;
#X obj 347 169 s kickaccent;
#X obj 784 172 s hihataccent;
#X obj 589 171 s conga;
#X obj 651 172 s clave;
#X obj 448 171 s kick;
#X msg 896 198 Rhythm Cha-Cha;
#X obj 832 230 s cymbal;
#X obj 507 170 s bongohi;
#X msg 245 316 1;
#X msg 277 318 0;
#X obj 184 317 spigot;
#X obj 304 276 sel 0 1 2 3 4 5 6 7 8 9 10 11 12 13 14 15, f 82;
#X obj 664 329 s hihat;
#X obj 313 329 s kickaccent;
#X obj 720 330 s hihataccent;
#X obj 459 329 s clave;
#X obj 406 330 s kick;
#X obj 591 330 s bongohi;
#X obj 517 328 s bongolo;
#X msg 894 279 Rhythm Rumba;
#X obj 61 91 spigot;
#X obj 350 37 sel 0 1 2 3 4 5 6 7 8 9 10 11 12 13 14 15, f 77;
#X msg 285 70 1;
#X msg 318 70 0;
#X obj 224 71 spigot;
#X obj 685 73 s hihat;
#X obj 351 69 s kickaccent;
#X obj 788 72 s hihataccent;
#X obj 452 71 s kick;
#X obj 576 71 s cymbal;
#X obj 511 70 s snare;
#X obj 223 41 sel 72;
#X obj 219 131 sel 73;
#X obj 214 212 sel 74;
#X obj 182 289 sel 75;
#X msg 907 35 Rhythm Foxtrott;
#X connect 0 0 18 0;
#X connect 0 0 13 0;
#X connect 0 0 31 0;
#X connect 0 0 45 0;
#X connect 1 0 15 0;
#X connect 6 0 7 0;
#X connect 7 0 41 0;
#X connect 7 1 41 1;
#X connect 8 0 52 0;
#X connect 8 0 53 0;
#X connect 8 0 54 0;
#X connect 8 0 55 0;
#X connect 11 0 13 1;
#X connect 12 0 13 1;
#X connect 13 0 14 0;
#X connect 14 0 3 0;
#X connect 14 0 9 0;
#X connect 14 0 2 0;
#X connect 14 1 2 0;
#X connect 14 2 9 0;
#X connect 14 2 2 0;
#X connect 14 2 27 0;
#X connect 14 3 3 0;
#X connect 14 3 9 0;
#X connect 14 3 2 0;
#X connect 14 4 3 0;
#X connect 14 4 9 0;
#X connect 14 4 2 0;
#X connect 14 5 2 0;
#X connect 14 6 9 0;
#X connect 14 6 5 0;
#X connect 14 6 2 0;
#X connect 14 6 27 0;
#X connect 14 7 5 0;
#X connect 14 7 4 0;
#X connect 14 7 2 0;
#X connect 14 8 10 0;
#X connect 14 8 9 0;
#X connect 14 8 2 0;
#X connect 14 9 2 0;
#X connect 14 10 27 0;
#X connect 14 10 2 0;
#X connect 14 10 9 0;
#X connect 14 11 3 0;
#X connect 14 11 2 0;
#X connect 14 11 9 0;
#X connect 14 12 3 0;
#X connect 14 12 2 0;
#X connect 14 12 9 0;
#X connect 14 13 2 0;
#X connect 14 14 2 0;
#X connect 14 14 9 0;
#X connect 14 14 27 0;
#X connect 14 14 5 0;
#X connect 14 15 5 0;
#X connect 14 15 4 0;
#X connect 16 0 18 1;
#X connect 17 0 18 1;
#X connect 18 0 19 0;
#X connect 19 0 24 0;
#X connect 19 0 21 0;
#X connect 19 0 22 0;
#X connect 19 1 20 0;
#X connect 19 2 24 0;
#X connect 19 2 20 0;
#X connect 19 3 21 0;
#X connect 19 3 22 0;
#X connect 19 3 28 0;
#X connect 19 4 24 0;
#X connect 19 4 20 0;
#X connect 19 4 28 0;
#X connect 19 5 20 0;
#X connect 19 6 24 0;
#X connect 19 6 25 0;
#X connect 19 6 23 0;
#X connect 19 6 22 0;
#X connect 19 7 23 0;
#X connect 19 7 20 0;
#X connect 19 8 24 0;
#X connect 19 8 25 0;
#X connect 19 8 20 0;
#X connect 19 9 20 0;
#X connect 19 10 24 0;
#X connect 19 10 20 0;
#X connect 19 11 25 0;
#X connect 19 11 20 0;
#X connect 19 11 28 0;
#X connect 19 12 24 0;
#X connect 19 12 20 0;
#X connect 19 12 28 0;
#X connect 19 13 20 0;
#X connect 19 14 24 0;
#X connect 19 14 23 0;
#X connect 19 14 25 0;
#X connect 19 14 20 0;
#X connect 19 15 23 0;
#X connect 19 15 22 0;
#X connect 26 0 15 0;
#X connect 29 0 31 1;
#X connect 30 0 31 1;
#X connect 31 0 32 0;
#X connect 32 0 34 0;
#X connect 32 0 36 0;
#X connect 32 0 39 0;
#X connect 32 0 33 0;
#X connect 32 1 38 0;
#X connect 32 2 38 0;
#X connect 32 2 33 0;
#X connect 32 3 39 0;
#X connect 32 3 36 0;
#X connect 32 3 33 0;
#X connect 32 4 34 0;
#X connect 32 4 38 0;
#X connect 32 4 33 0;
#X connect 32 5 38 0;
#X connect 32 5 35 0;
#X connect 32 5 33 0;
#X connect 32 6 39 0;
#X connect 32 6 37 0;
#X connect 32 6 36 0;
#X connect 32 6 33 0;
#X connect 32 7 38 0;
#X connect 32 7 33 0;
#X connect 32 8 39 0;
#X connect 32 8 33 0;
#X connect 32 8 37 0;
#X connect 32 9 38 0;
#X connect 32 10 38 0;
#X connect 32 10 33 0;
#X connect 32 10 36 0;
#X connect 32 11 33 0;
#X connect 32 11 39 0;
#X connect 32 12 35 0;
#X connect 32 12 38 0;
#X connect 32 12 36 0;
#X connect 32 12 34 0;
#X connect 32 13 33 0;
#X connect 32 13 38 0;
#X connect 32 14 33 0;
#X connect 32 14 39 0;
#X connect 32 14 37 0;
#X connect 32 15 33 0;
#X connect 32 15 38 0;
#X connect 40 0 15 0;
#X connect 41 0 8 0;
#X connect 42 0 47 0;
#X connect 42 0 48 0;
#X connect 42 4 50 0;
#X connect 42 4 51 0;
#X connect 42 8 47 0;
#X connect 42 8 48 0;
#X connect 42 12 50 0;
#X connect 42 12 51 0;
#X connect 43 0 45 1;
#X connect 44 0 45 1;
#X connect 45 0 42 0;
#X connect 52 0 43 0;
#X connect 52 0 56 0;
#X connect 52 1 44 0;
#X connect 53 0 16 0;
#X connect 53 0 1 0;
#X connect 53 1 17 0;
#X connect 54 0 11 0;
#X connect 54 0 26 0;
#X connect 54 1 12 0;
#X connect 55 0 29 0;
#X connect 55 0 40 0;
#X connect 55 1 30 0;
#X connect 56 0 15 0;
#X restore 393 307 pd presets2;
#X obj 28 672 loadbang;
#X msg 25 705 1;
#N canvas 0 23 450 300 delay 0;
#X obj 112 72 inlet~;
#X obj 126 232 outlet~;
#X obj 272 236 outlet~;
#X obj 110 120 delwrite~ delay 200;
#X obj 101 185 delread4~ delay 8.8;
#X obj 272 189 delread4~ delay;
#X msg 109 156 8.8;
#X msg 273 157 6.3;
#X connect 0 0 3 0;
#X connect 4 0 1 0;
#X connect 5 0 2 0;
#X connect 6 0 4 0;
#X connect 7 0 5 0;
#X restore 123 747 pd delay;
#X obj 138 724 *~ 0.2;
#X connect 0 0 4 0;
#X connect 1 0 62 0;
#X connect 1 0 79 0;
#X connect 2 0 0 0;
#X connect 3 0 0 0;
#X connect 3 0 4 1;
#X connect 4 0 5 0;
#X connect 4 0 30 0;
#X connect 5 0 4 1;
#X connect 6 0 120 0;
#X connect 8 0 6 0;
#X connect 9 0 6 0;
#X connect 10 0 9 0;
#X connect 10 0 8 0;
#X connect 11 0 24 0;
#X connect 12 0 10 0;
#X connect 13 0 117 0;
#X connect 14 0 13 0;
#X connect 15 0 16 0;
#X connect 15 0 14 0;
#X connect 16 0 13 0;
#X connect 17 0 15 0;
#X connect 18 0 36 0;
#X connect 18 0 131 0;
#X connect 19 0 117 0;
#X connect 20 0 19 0;
#X connect 21 0 23 0;
#X connect 21 0 20 0;
#X connect 22 0 21 0;
#X connect 23 0 19 0;
#X connect 24 0 28 0;
#X connect 25 0 28 1;
#X connect 26 0 3 0;
#X connect 26 0 118 0;
#X connect 26 1 119 0;
#X connect 27 0 2 0;
#X connect 28 0 25 0;
#X connect 28 0 29 0;
#X connect 29 0 26 0;
#X connect 29 0 27 0;
#X connect 30 0 18 0;
#X connect 31 0 120 0;
#X connect 32 0 31 0;
#X connect 33 0 34 0;
#X connect 33 0 32 0;
#X connect 34 0 31 0;
#X connect 35 0 33 0;
#X connect 37 0 117 0;
#X connect 38 0 37 0;
#X connect 39 0 41 0;
#X connect 39 0 38 0;
#X connect 40 0 39 0;
#X connect 41 0 37 0;
#X connect 42 0 117 0;
#X connect 43 0 42 0;
#X connect 44 0 45 0;
#X connect 44 0 43 0;
#X connect 45 0 42 0;
#X connect 46 0 44 0;
#X connect 47 0 117 0;
#X connect 48 0 47 0;
#X connect 49 0 51 0;
#X connect 49 0 48 0;
#X connect 50 0 49 0;
#X connect 51 0 47 0;
#X connect 52 0 117 0;
#X connect 53 0 52 0;
#X connect 54 0 56 0;
#X connect 54 0 53 0;
#X connect 55 0 54 0;
#X connect 56 0 52 0;
#X connect 57 0 59 0;
#X connect 58 0 1 0;
#X connect 59 0 58 0;
#X connect 60 0 61 0;
#X connect 61 0 63 0;
#X connect 62 0 61 0;
#X connect 62 1 61 1;
#X connect 63 0 0 1;
#X connect 65 0 60 0;
#X connect 65 0 77 0;
#X connect 66 0 127 0;
#X connect 67 0 64 0;
#X connect 67 1 7 0;
#X connect 68 0 128 0;
#X connect 68 0 74 0;
#X connect 68 0 129 0;
#X connect 68 0 126 0;
#X connect 74 0 67 2;
#X connect 75 0 76 0;
#X connect 76 0 28 0;
#X connect 77 0 1 0;
#X connect 79 0 103 0;
#X connect 80 0 66 1;
#X connect 80 0 81 0;
#X connect 81 0 83 0;
#X connect 83 0 84 0;
#X connect 84 0 82 0;
#X connect 85 0 117 0;
#X connect 86 0 85 0;
#X connect 87 0 89 0;
#X connect 87 0 86 0;
#X connect 88 0 87 0;
#X connect 89 0 85 0;
#X connect 90 0 117 0;
#X connect 91 0 90 0;
#X connect 92 0 90 0;
#X connect 93 0 94 0;
#X connect 94 0 92 0;
#X connect 94 0 91 0;
#X connect 95 0 117 0;
#X connect 96 0 95 0;
#X connect 97 0 99 0;
#X connect 97 0 96 0;
#X connect 98 0 97 0;
#X connect 99 0 95 0;
#X connect 100 0 97 0;
#X connect 101 0 94 0;
#X connect 102 0 66 0;
#X connect 102 0 64 0;
#X connect 102 0 7 0;
#X connect 102 0 135 0;
#X connect 103 0 78 0;
#X connect 104 0 64 0;
#X connect 104 0 7 0;
#X connect 104 0 66 0;
#X connect 104 0 135 0;
#X connect 105 0 102 0;
#X connect 106 0 105 1;
#X connect 106 0 107 0;
#X connect 107 0 108 1;
#X connect 107 1 108 0;
#X connect 108 0 104 1;
#X connect 109 0 102 1;
#X connect 110 0 109 0;
#X connect 111 0 112 0;
#X connect 112 0 113 0;
#X connect 113 0 115 0;
#X connect 115 0 114 0;
#X connect 116 0 67 0;
#X connect 117 0 104 0;
#X connect 117 0 105 0;
#X connect 118 0 73 0;
#X connect 119 0 73 0;
#X connect 120 0 117 0;
#X connect 121 0 120 1;
#X connect 122 0 123 0;
#X connect 123 0 124 0;
#X connect 124 0 130 0;
#X connect 126 0 67 4;
#X connect 127 0 116 0;
#X connect 128 0 67 1;
#X connect 129 0 67 3;
#X connect 130 0 125 0;
#X connect 132 0 133 0;
#X connect 133 0 104 1;
#X connect 133 0 120 1;
#X connect 134 0 64 0;
#X connect 134 1 7 0;
#X connect 135 0 134 0;
