#N canvas 24 27 540 479 10;
#X obj 153 251 metro;
#X obj 197 151 60000;
#X floatatom 268 152 5 0 0 0 - - -, f 5;
#X obj 219 183 /;
#X obj 184 122 t b b b;
#X obj 186 81 bng 15 250 50 0 empty empty empty 17 7 0 10 -262144 -1
-1;
#X floatatom 265 210 5 0 0 0 - - -, f 5;
#X obj 216 217 i;
#X floatatom 267 248 5 0 0 0 - - -, f 5;
#X msg 122 81 0;
#X msg 270 95 60;
#X obj 268 49 loadbang;
#X obj 146 287 i;
#X floatatom 91 295 5 0 0 0 - - -, f 5;
#X floatatom 141 340 5 0 0 0 - - -, f 5;
#X floatatom 137 404 5 0 0 0 - - -, f 5;
#X obj 211 256 0;
#X obj 210 291 + 1;
#X obj 139 369 % 8;
#X connect 0 0 12 0;
#X connect 0 0 13 0;
#X connect 1 0 3 0;
#X connect 2 0 3 1;
#X connect 3 0 6 0;
#X connect 3 0 7 0;
#X connect 4 0 0 0;
#X connect 4 1 1 0;
#X connect 4 2 2 0;
#X connect 5 0 4 0;
#X connect 7 0 8 0;
#X connect 7 0 0 1;
#X connect 9 0 0 0;
#X connect 10 0 2 0;
#X connect 11 0 10 0;
#X connect 12 0 14 0;
#X connect 12 0 17 0;
#X connect 14 0 18 0;
#X connect 16 0 12 1;
#X connect 17 0 12 1;
#X connect 18 0 15 0;
