#N canvas 849 136 664 625 10;
#X obj 93 70 TuioClient;
#X obj 187 74 bng 15 250 50 0 empty empty empty 17 7 0 10 -262144 -1
-1;
#X obj 92 106 route addObject removeObject updateObject;
#X obj 172 142 unpack f f f f f;
#X floatatom 215 200 5 0 0 0 - - -, f 5;
#X floatatom 94 197 5 0 0 0 - - -, f 5;
#X floatatom 273 199 5 0 0 0 - - -, f 5;
#X floatatom 327 199 5 0 0 0 - - -, f 5;
#X floatatom 154 199 5 0 0 0 - - -, f 5;
#X text 77 218 Counter;
#X text 161 218 Id;
#X text 213 223 x;
#X text 287 223 y;
#X text 333 218 angle;
#X obj 188 402 noteout 1;
#X obj 287 290 * 100;
#X obj 201 283 * 100;
#X obj 194 344 makenote 127 100;
#X connect 0 0 2 0;
#X connect 0 1 1 0;
#X connect 2 2 3 0;
#X connect 3 0 5 0;
#X connect 3 1 8 0;
#X connect 3 2 4 0;
#X connect 3 3 6 0;
#X connect 3 4 7 0;
#X connect 4 0 16 0;
#X connect 7 0 15 0;
#X connect 15 0 17 2;
#X connect 16 0 17 0;
#X connect 17 0 14 0;
#X connect 17 1 14 1;
