#N canvas 700 49 717 488 10;
#X obj 237 22 tgl 15 0 empty empty empty 17 7 0 10 -262144 -1 -1 0
1;
#X obj 95 81 metro 350;
#X obj 137 233 noteout 1;
#X obj 392 218 noteout 2;
#X obj 341 70 metro 400;
#X floatatom 95 171 5 0 0 0 - - -, f 5;
#X floatatom 246 143 5 0 0 0 - - -, f 5;
#X floatatom 538 136 5 0 0 0 - - -, f 5;
#X obj 229 116 random 11;
#X obj 517 112 random 11;
#X obj 341 182 makenote 50 50;
#X obj 95 195 makenote 50 50;
#X obj 95 119 random 80;
#X obj 341 105 random 80;
#X floatatom 341 155 5 0 0 0 - - -, f 5;
#X obj 95 146 + 30;
#X obj 341 132 + 30;
#X obj 275 261 tgl 15 0 empty empty empty 17 7 0 10 -262144 -1 -1 0
1;
#X obj 138 303 metro 0.5 135 permin;
#X floatatom 138 357 5 0 0 0 - - -, f 5;
#X obj 138 381 makenote 50 100;
#X obj 138 418 noteout 9;
#X obj 138 335 random 127;
#X floatatom 328 359 5 0 0 0 - - -, f 5;
#X obj 328 383 makenote 50 100;
#X obj 328 420 noteout 9;
#X obj 328 337 random 127;
#X obj 328 305 metro 0.51 135 permin;
#X connect 0 0 1 0;
#X connect 0 0 4 0;
#X connect 1 0 8 0;
#X connect 1 0 12 0;
#X connect 4 0 9 0;
#X connect 4 0 13 0;
#X connect 5 0 11 0;
#X connect 8 0 6 0;
#X connect 8 0 2 2;
#X connect 9 0 7 0;
#X connect 9 0 3 2;
#X connect 10 0 3 0;
#X connect 10 1 3 1;
#X connect 11 0 2 0;
#X connect 11 1 2 1;
#X connect 12 0 15 0;
#X connect 13 0 16 0;
#X connect 14 0 10 0;
#X connect 15 0 5 0;
#X connect 16 0 14 0;
#X connect 17 0 18 0;
#X connect 17 0 27 0;
#X connect 18 0 22 0;
#X connect 19 0 20 0;
#X connect 20 0 21 0;
#X connect 20 1 21 1;
#X connect 22 0 19 0;
#X connect 23 0 24 0;
#X connect 24 0 25 0;
#X connect 24 1 25 1;
#X connect 26 0 23 0;
#X connect 27 0 26 0;
