#N canvas 823 33 450 300 10;
#X obj 105 101 f;
#X obj 173 101 + 1;
#X floatatom 105 155 5 0 0 0 - - -, f 5;
#X obj 105 54 tgl 15 0 empty empty empty 17 7 0 10 -262144 -1 -1 0
1;
#X obj 105 76 metro 500;
#X obj 105 128 % 4;
#X text 101 23 A Counter!;
#X connect 0 0 1 0;
#X connect 0 0 5 0;
#X connect 1 0 0 1;
#X connect 3 0 4 0;
#X connect 4 0 0 0;
#X connect 5 0 2 0;
