#N canvas 211 45 1182 772 10;
#X obj 190 214 makenote 100 100;
#X obj 190 244 noteout 1;
#X obj 387 27 tgl 15 0 empty empty empty 17 7 0 10 -262144 -1 -1 0
1;
#X obj 190 128 metro 1 60 permin;
#X obj 577 223 makenote 100 100;
#X obj 577 253 noteout 1;
#X msg 578 172 42;
#X obj 578 125 metro 0.99 60 permin;
#X msg 190 181 42;
#X text 204 324 2 hi hats drifting would be cool under an evolving
pad;
#X connect 0 0 1 0;
#X connect 0 1 1 1;
#X connect 2 0 3 0;
#X connect 2 0 7 0;
#X connect 3 0 8 0;
#X connect 4 0 5 0;
#X connect 4 1 5 1;
#X connect 6 0 4 0;
#X connect 7 0 6 0;
#X connect 8 0 0 0;
