#N canvas 616 32 647 734 10;
#X obj 337 20 tgl 15 0 empty empty empty 17 7 0 10 -262144 -1 -1 0
1;
#X obj 336 143 sel 0 1 2 3 4 5 6 7 8;
#X msg 272 196 40;
#X msg 316 199 45;
#X msg 355 201 50;
#X msg 407 206 55;
#X msg 455 209 60;
#X msg 500 207 65;
#X msg 543 208 70;
#X msg 587 207 75;
#X obj 407 292 noteout 1;
#X floatatom 549 119 5 0 0 0 - - -, f 5;
#X obj 121 439 sel 0 1 2 3 4 5 6 7 8;
#X msg 57 492 40;
#X msg 101 495 45;
#X msg 140 497 50;
#X msg 192 502 55;
#X msg 240 505 60;
#X msg 285 503 65;
#X msg 328 504 70;
#X msg 372 503 75;
#X obj 192 588 noteout 1;
#X floatatom 334 415 5 0 0 0 - - -, f 5;
#X obj 192 547 makenote 75 100;
#X msg 416 505;
#X msg 460 506;
#X msg 105 113 100;
#X obj 105 135 makenote 100 100;
#X obj 106 190 noteout 2;
#X text 379 356 we are getting closer to having our;
#X obj 407 251 makenote 75 50;
#X obj 110 85 metro 1 120 permin;
#X obj 336 69 metro 0.4 120 permin;
#X obj 121 365 metro 0.25 120 permin;
#X obj 337 95 random 15;
#X obj 122 391 random 20;
#X connect 0 0 31 0;
#X connect 0 0 33 0;
#X connect 0 0 32 0;
#X connect 1 0 2 0;
#X connect 1 1 3 0;
#X connect 1 2 4 0;
#X connect 1 3 5 0;
#X connect 1 4 6 0;
#X connect 1 5 7 0;
#X connect 1 6 8 0;
#X connect 1 7 9 0;
#X connect 2 0 30 0;
#X connect 3 0 30 0;
#X connect 4 0 30 0;
#X connect 5 0 30 0;
#X connect 6 0 30 0;
#X connect 7 0 30 0;
#X connect 8 0 30 0;
#X connect 9 0 30 0;
#X connect 12 0 13 0;
#X connect 12 1 14 0;
#X connect 12 2 15 0;
#X connect 12 3 16 0;
#X connect 12 4 17 0;
#X connect 12 5 18 0;
#X connect 12 6 19 0;
#X connect 12 7 20 0;
#X connect 12 8 24 0;
#X connect 12 9 25 0;
#X connect 13 0 23 0;
#X connect 14 0 23 0;
#X connect 15 0 23 0;
#X connect 16 0 23 0;
#X connect 17 0 23 0;
#X connect 18 0 23 0;
#X connect 19 0 23 0;
#X connect 20 0 23 0;
#X connect 23 0 21 0;
#X connect 23 1 21 1;
#X connect 26 0 27 0;
#X connect 27 0 28 0;
#X connect 27 1 28 1;
#X connect 30 0 10 0;
#X connect 30 1 10 1;
#X connect 31 0 26 0;
#X connect 32 0 34 0;
#X connect 33 0 35 0;
#X connect 34 0 1 0;
#X connect 34 0 11 0;
#X connect 35 0 12 0;
#X connect 35 0 22 0;
