#N canvas 569 79 715 605 10;
#X obj 39 379 random 127;
#X obj 140 331 metro;
#X floatatom 403 252 5 0 0 0 - - -, f 5;
#X obj 147 220 random 500;
#X obj 256 378 random 600;
#X obj 148 380 random 127;
#X obj 136 450 makenote;
#X obj 135 487 noteout 1;
#X obj 148 107 metro 3100;
#X text 236 221 picks a random int up to 500;
#X text 187 322 starts the metro and gives it the random value tempo
;
#X text 288 404 bangs 3 random values for note \, velo and duration
;
#X text 232 80 sends a bang every 3.1 seconds to reset the random value
;
#X text 37 29 Absolute Stable Genius Program that Generates garbage
Music For You;
#X msg 28 67 0;
#X obj 149 74 tgl 15 0 empty empty empty 17 7 0 10 -262144 -1 -1 1
1;
#X connect 0 0 6 0;
#X connect 1 0 0 0;
#X connect 1 0 4 0;
#X connect 1 0 5 0;
#X connect 3 0 1 0;
#X connect 3 0 1 1;
#X connect 3 0 2 0;
#X connect 4 0 6 2;
#X connect 5 0 6 1;
#X connect 6 0 7 0;
#X connect 6 1 7 1;
#X connect 8 0 3 0;
#X connect 14 0 8 0;
#X connect 14 0 3 0;
#X connect 14 0 1 0;
#X connect 15 0 8 0;
