#N canvas 438 47 822 644 10;
#X obj 306 44 tgl 15 0 empty empty empty 17 7 0 10 -262144 -1 -1 0
1;
#X obj 94 245 sel 0 1 2 3;
#X msg 172 302;
#X obj 94 337 makenote 100 100;
#X obj 94 375 noteout 1;
#X msg 94 301 52;
#X msg 133 299 57;
#X msg 213 304 62;
#X obj 137 138 + 1;
#X floatatom 163 163 5 0 0 0 - - -, f 5;
#X floatatom 132 207 5 0 0 0 - - -, f 5;
#X obj 94 177 % 4;
#X obj 290 249 sel 0 1 2 3;
#X msg 368 306;
#X obj 290 341 makenote 100 100;
#X obj 290 379 noteout 1;
#X obj 333 142 + 1;
#X floatatom 359 167 5 0 0 0 - - -, f 5;
#X floatatom 328 211 5 0 0 0 - - -, f 5;
#X obj 290 181 % 4;
#X obj 469 249 sel 0 1 2 3;
#X msg 547 306;
#X obj 469 341 makenote 100 100;
#X obj 469 379 noteout 1;
#X obj 512 142 + 1;
#X floatatom 538 167 5 0 0 0 - - -, f 5;
#X floatatom 507 211 5 0 0 0 - - -, f 5;
#X obj 469 181 % 4;
#X msg 290 305 64;
#X msg 329 303 69;
#X msg 405 308 74;
#X msg 469 305 76;
#X msg 508 303 81;
#X msg 588 308 86;
#X obj 94 113 metro 0.5 80 permin;
#X obj 94 135 f;
#X obj 290 139 f;
#X obj 469 139 f;
#X obj 290 117 metro 0.5 80.1 permin;
#X obj 469 117 metro 0.5 80.2 permin;
#X obj 84 419 bng 60 250 50 0 empty empty empty 17 7 0 10 -4034 -1
-1;
#X obj 267 420 bng 55 250 50 0 empty empty empty 17 7 0 10 -4160 -1
-1;
#X obj 451 416 bng 80 250 50 0 empty empty empty 17 7 0 10 -258113
-1 -1;
#X msg 265 77 0;
#X text 94 524 THE STEVE REICH IMPERSONATOR ©2018;
#X connect 0 0 34 0;
#X connect 0 0 38 0;
#X connect 0 0 39 0;
#X connect 1 0 5 0;
#X connect 1 1 6 0;
#X connect 1 2 2 0;
#X connect 1 3 7 0;
#X connect 2 0 3 0;
#X connect 3 0 4 0;
#X connect 3 0 40 0;
#X connect 3 1 4 1;
#X connect 5 0 3 0;
#X connect 6 0 3 0;
#X connect 7 0 3 0;
#X connect 8 0 35 1;
#X connect 11 0 10 0;
#X connect 11 0 1 0;
#X connect 12 0 28 0;
#X connect 12 1 29 0;
#X connect 12 2 13 0;
#X connect 12 3 30 0;
#X connect 13 0 14 0;
#X connect 14 0 15 0;
#X connect 14 0 41 0;
#X connect 14 1 15 1;
#X connect 16 0 36 1;
#X connect 19 0 18 0;
#X connect 19 0 12 0;
#X connect 20 0 31 0;
#X connect 20 1 32 0;
#X connect 20 2 21 0;
#X connect 20 3 33 0;
#X connect 21 0 22 0;
#X connect 22 0 23 0;
#X connect 22 0 42 0;
#X connect 22 1 23 1;
#X connect 24 0 37 1;
#X connect 27 0 20 0;
#X connect 27 0 26 0;
#X connect 28 0 14 0;
#X connect 29 0 14 0;
#X connect 30 0 14 0;
#X connect 31 0 22 0;
#X connect 32 0 22 0;
#X connect 33 0 22 0;
#X connect 34 0 35 0;
#X connect 35 0 8 0;
#X connect 35 0 9 0;
#X connect 35 0 11 0;
#X connect 36 0 16 0;
#X connect 36 0 17 0;
#X connect 36 0 19 0;
#X connect 37 0 24 0;
#X connect 37 0 25 0;
#X connect 37 0 27 0;
#X connect 38 0 36 0;
#X connect 39 0 37 0;
#X connect 43 0 35 0;
#X connect 43 0 36 0;
#X connect 43 0 37 0;
