#N canvas 198 55 1079 723 10;
#X obj 306 44 tgl 15 0 empty empty empty 17 7 0 10 -262144 -1 -1 0
1;
#X obj 94 425 makenote 100 100;
#X obj 103 463 noteout 1;
#X obj 137 138 + 1;
#X floatatom 163 163 5 0 0 0 - - -, f 5;
#X floatatom 132 207 5 0 0 0 - - -, f 5;
#X obj 94 135 f;
#X obj 94 177 % 10;
#X msg 94 301 40;
#X msg 137 299 41;
#X msg 176 302 42;
#X msg 213 304 43;
#X msg 252 302 44;
#X msg 299 301 45;
#X msg 340 300 46;
#X msg 391 303 47;
#X msg 438 305 48;
#X msg 475 305 49;
#X obj 94 245 sel 0 1 2 3 4 5 6 7 8 9;
#X obj 542 402 makenote 100 100;
#X obj 551 440 noteout 1;
#X obj 585 115 + 1;
#X floatatom 611 140 5 0 0 0 - - -, f 5;
#X floatatom 580 184 5 0 0 0 - - -, f 5;
#X obj 542 112 f;
#X obj 542 154 % 10;
#X msg 542 278 40;
#X msg 585 276 41;
#X msg 624 279 42;
#X msg 661 281 43;
#X msg 700 279 44;
#X msg 747 278 45;
#X msg 788 277 46;
#X msg 839 280 47;
#X msg 886 282 48;
#X msg 923 282 49;
#X obj 542 222 sel 0 1 2 3 4 5 6 7 8 9;
#X text 100 534 Let it run for a while...like 15 minutes...;
#X obj 542 90 metro 0.25 80.1 permin;
#X obj 94 113 metro 0.25 80 permin;
#X connect 0 0 38 0;
#X connect 0 0 39 0;
#X connect 1 0 2 0;
#X connect 1 1 2 1;
#X connect 3 0 6 1;
#X connect 6 0 3 0;
#X connect 6 0 4 0;
#X connect 6 0 7 0;
#X connect 7 0 5 0;
#X connect 7 0 18 0;
#X connect 8 0 1 0;
#X connect 9 0 1 0;
#X connect 10 0 1 0;
#X connect 11 0 1 0;
#X connect 12 0 1 0;
#X connect 13 0 1 0;
#X connect 14 0 1 0;
#X connect 15 0 1 0;
#X connect 16 0 1 0;
#X connect 17 0 1 0;
#X connect 18 0 8 0;
#X connect 18 1 9 0;
#X connect 18 2 10 0;
#X connect 18 3 11 0;
#X connect 18 4 12 0;
#X connect 18 5 13 0;
#X connect 18 6 14 0;
#X connect 18 7 15 0;
#X connect 18 8 16 0;
#X connect 18 9 17 0;
#X connect 19 0 20 0;
#X connect 19 1 20 1;
#X connect 21 0 24 1;
#X connect 24 0 21 0;
#X connect 24 0 22 0;
#X connect 24 0 25 0;
#X connect 25 0 23 0;
#X connect 25 0 36 0;
#X connect 26 0 19 0;
#X connect 27 0 19 0;
#X connect 28 0 19 0;
#X connect 29 0 19 0;
#X connect 30 0 19 0;
#X connect 31 0 19 0;
#X connect 32 0 19 0;
#X connect 33 0 19 0;
#X connect 34 0 19 0;
#X connect 35 0 19 0;
#X connect 36 0 26 0;
#X connect 36 1 27 0;
#X connect 36 2 28 0;
#X connect 36 3 29 0;
#X connect 36 4 30 0;
#X connect 36 5 31 0;
#X connect 36 6 32 0;
#X connect 36 7 33 0;
#X connect 36 8 34 0;
#X connect 36 9 35 0;
#X connect 38 0 24 0;
#X connect 39 0 6 0;
