#N canvas 94 23 1220 813 10;
#X obj 548 17 tgl 15 0 empty empty empty 17 7 0 10 -262144 -1 -1 0
1;
#X obj 183 425 makenote 100 100;
#X obj 183 455 noteout 1;
#X obj 217 138 + 1;
#X floatatom 243 163 5 0 0 0 - - -, f 5;
#X floatatom 212 207 5 0 0 0 - - -, f 5;
#X obj 174 135 f;
#X msg 18 301 40;
#X msg 57 299 41;
#X msg 96 302 42;
#X msg 133 304 43;
#X msg 172 302 44;
#X msg 219 301 45;
#X msg 260 300 46;
#X msg 311 303 47;
#X msg 358 305 48;
#X msg 395 305 49;
#X obj 178 245 sel 0 1 2 3 4 5 6 7 8 9 10 11 12 13 14 15;
#X obj 174 177 % 15;
#X msg 439 308 48;
#X msg 482 312 46;
#X msg 528 311 44;
#X msg 570 312 43;
#X msg 610 312 42;
#X obj 746 402 noteout 1;
#X obj 781 52 + 1;
#X floatatom 807 77 5 0 0 0 - - -, f 5;
#X floatatom 776 121 5 0 0 0 - - -, f 5;
#X obj 738 49 f;
#X msg 582 215 40;
#X msg 621 213 41;
#X msg 660 216 42;
#X msg 697 218 43;
#X msg 736 216 44;
#X msg 783 215 45;
#X msg 824 214 46;
#X msg 875 217 47;
#X msg 922 219 48;
#X msg 959 219 49;
#X obj 742 159 sel 0 1 2 3 4 5 6 7 8 9 10 11 12 13 14 15;
#X obj 738 91 % 15;
#X msg 1003 222 48;
#X msg 1046 226 46;
#X msg 1092 225 44;
#X msg 1134 226 43;
#X msg 1174 226 42;
#X msg 582 40 0;
#X text 494 8 on/off;
#X text 585 64 reset sequences;
#X obj 746 372 makenote 100 100;
#X obj 997 44 s duration;
#X obj 310 403 r duration;
#X obj 865 342 r duration;
#X obj 997 17 hsl 128 15 0 127 0 0 empty empty empty -2 -8 0 10 -262144
-1 -1 2100 1;
#X obj 174 113 metro 0.125 85 permin;
#X obj 738 27 metro 0.125 85.5 permin;
#X obj 747 339 + 11;
#X obj 525 752 noteout 1;
#X obj 560 392 + 1;
#X floatatom 586 416 5 0 0 0 - - -, f 5;
#X floatatom 555 460 5 0 0 0 - - -, f 5;
#X obj 517 389 f;
#X msg 361 555 40;
#X msg 400 553 41;
#X msg 439 556 42;
#X msg 476 558 43;
#X msg 515 556 44;
#X msg 562 555 45;
#X msg 603 554 46;
#X msg 654 557 47;
#X msg 701 559 48;
#X msg 738 559 49;
#X obj 521 499 sel 0 1 2 3 4 5 6 7 8 9 10 11 12 13 14 15;
#X obj 517 430 % 15;
#X msg 782 562 48;
#X msg 825 566 46;
#X msg 871 565 44;
#X msg 913 566 43;
#X msg 953 566 42;
#X obj 525 712 makenote 100 100;
#X obj 644 682 r duration;
#X obj 526 679 + 6;
#X obj 517 367 metro 0.125 86 permin;
#X connect 0 0 54 0;
#X connect 0 0 55 0;
#X connect 0 0 82 0;
#X connect 1 0 2 0;
#X connect 1 1 2 1;
#X connect 3 0 6 1;
#X connect 6 0 3 0;
#X connect 6 0 4 0;
#X connect 6 0 18 0;
#X connect 7 0 1 0;
#X connect 8 0 1 0;
#X connect 9 0 1 0;
#X connect 10 0 1 0;
#X connect 11 0 1 0;
#X connect 12 0 1 0;
#X connect 13 0 1 0;
#X connect 14 0 1 0;
#X connect 15 0 1 0;
#X connect 16 0 1 0;
#X connect 17 0 7 0;
#X connect 17 1 8 0;
#X connect 17 2 9 0;
#X connect 17 3 10 0;
#X connect 17 4 11 0;
#X connect 17 5 12 0;
#X connect 17 6 13 0;
#X connect 17 7 14 0;
#X connect 17 8 15 0;
#X connect 17 9 16 0;
#X connect 17 10 19 0;
#X connect 17 11 20 0;
#X connect 17 12 21 0;
#X connect 17 13 22 0;
#X connect 17 14 23 0;
#X connect 18 0 5 0;
#X connect 18 0 17 0;
#X connect 19 0 1 0;
#X connect 20 0 1 0;
#X connect 21 0 1 0;
#X connect 22 0 1 0;
#X connect 23 0 1 0;
#X connect 25 0 28 1;
#X connect 28 0 25 0;
#X connect 28 0 26 0;
#X connect 28 0 40 0;
#X connect 29 0 56 0;
#X connect 30 0 56 0;
#X connect 31 0 56 0;
#X connect 32 0 56 0;
#X connect 33 0 56 0;
#X connect 34 0 56 0;
#X connect 35 0 56 0;
#X connect 36 0 56 0;
#X connect 37 0 56 0;
#X connect 38 0 56 0;
#X connect 39 0 29 0;
#X connect 39 1 30 0;
#X connect 39 2 31 0;
#X connect 39 3 32 0;
#X connect 39 4 33 0;
#X connect 39 5 34 0;
#X connect 39 6 35 0;
#X connect 39 7 36 0;
#X connect 39 8 37 0;
#X connect 39 9 38 0;
#X connect 39 10 41 0;
#X connect 39 11 42 0;
#X connect 39 12 43 0;
#X connect 39 13 44 0;
#X connect 39 14 45 0;
#X connect 40 0 27 0;
#X connect 40 0 39 0;
#X connect 41 0 56 0;
#X connect 42 0 56 0;
#X connect 43 0 56 0;
#X connect 44 0 56 0;
#X connect 45 0 56 0;
#X connect 46 0 6 0;
#X connect 46 0 28 0;
#X connect 46 0 61 0;
#X connect 49 0 24 0;
#X connect 49 1 24 1;
#X connect 51 0 1 2;
#X connect 52 0 49 2;
#X connect 53 0 50 0;
#X connect 54 0 6 0;
#X connect 55 0 28 0;
#X connect 56 0 49 0;
#X connect 58 0 61 1;
#X connect 61 0 58 0;
#X connect 61 0 59 0;
#X connect 61 0 73 0;
#X connect 62 0 81 0;
#X connect 63 0 81 0;
#X connect 64 0 81 0;
#X connect 65 0 81 0;
#X connect 66 0 81 0;
#X connect 67 0 81 0;
#X connect 68 0 81 0;
#X connect 69 0 81 0;
#X connect 70 0 81 0;
#X connect 71 0 81 0;
#X connect 72 0 62 0;
#X connect 72 1 63 0;
#X connect 72 2 64 0;
#X connect 72 3 65 0;
#X connect 72 4 66 0;
#X connect 72 5 67 0;
#X connect 72 6 68 0;
#X connect 72 7 69 0;
#X connect 72 8 70 0;
#X connect 72 9 71 0;
#X connect 72 10 74 0;
#X connect 72 11 75 0;
#X connect 72 12 76 0;
#X connect 72 13 77 0;
#X connect 72 14 78 0;
#X connect 73 0 60 0;
#X connect 73 0 72 0;
#X connect 74 0 81 0;
#X connect 75 0 81 0;
#X connect 76 0 81 0;
#X connect 77 0 81 0;
#X connect 78 0 81 0;
#X connect 79 0 57 0;
#X connect 79 1 57 1;
#X connect 80 0 79 2;
#X connect 81 0 79 0;
#X connect 82 0 61 0;
