#N canvas 141 23 1197 855 10;
#X obj 175 323 makenote 100 100;
#X obj 175 353 noteout 1;
#X obj 426 25 tgl 15 0 empty empty empty 17 7 0 10 -262144 -1 -1 0
1;
#X msg 176 263 41;
#X obj 173 153 f;
#X obj 235 157 + 1;
#X obj 175 217 sel 0 1;
#X obj 173 188 % 2;
#X msg 235 264 42;
#X obj 421 324 makenote 100 100;
#X obj 421 354 noteout 1;
#X obj 419 154 f;
#X obj 481 157 + 1;
#X obj 421 218 sel 0 1;
#X obj 419 189 % 2;
#X obj 660 328 makenote 100 100;
#X obj 660 358 noteout 1;
#X obj 658 158 f;
#X obj 720 152 + 1;
#X obj 660 222 sel 0 1;
#X obj 658 193 % 2;
#X msg 661 268 43;
#X msg 720 269 39;
#X text 385 480 comment;
#X text 177 441 a simple phase to use with drum sounds (Boutique 808)
;
#X floatatom 254 191 5 0 0 0 - - -, f 5;
#X obj 169 110 metro 1 85 permin;
#X obj 420 114 metro 1.3333 85 permin;
#X obj 659 118 metro 1.4286 85 permin;
#X msg 422 260 56;
#X msg 481 265 55;
#X connect 0 0 1 0;
#X connect 0 1 1 1;
#X connect 2 0 26 0;
#X connect 2 0 27 0;
#X connect 2 0 28 0;
#X connect 3 0 0 0;
#X connect 4 0 5 0;
#X connect 4 0 7 0;
#X connect 4 0 25 0;
#X connect 5 0 4 1;
#X connect 6 0 3 0;
#X connect 6 1 8 0;
#X connect 7 0 6 0;
#X connect 8 0 0 0;
#X connect 9 0 10 0;
#X connect 9 1 10 1;
#X connect 11 0 12 0;
#X connect 11 0 14 0;
#X connect 12 0 11 1;
#X connect 13 0 29 0;
#X connect 13 1 30 0;
#X connect 14 0 13 0;
#X connect 15 0 16 0;
#X connect 15 1 16 1;
#X connect 17 0 18 0;
#X connect 17 0 20 0;
#X connect 18 0 17 1;
#X connect 19 0 21 0;
#X connect 19 1 22 0;
#X connect 20 0 19 0;
#X connect 21 0 15 0;
#X connect 22 0 15 0;
#X connect 26 0 4 0;
#X connect 27 0 11 0;
#X connect 28 0 17 0;
#X connect 29 0 9 0;
#X connect 30 0 9 0;
