#N canvas 492 37 865 841 10;
#X obj 54 299 noteout 1;
#X obj 52 271 makenote 60 100;
#X obj 213 170 hsl 128 15 10 1000 0 0 duration empty Note_Duration
-2 -8 0 10 -4160 -1 -1 0 1;
#X obj 169 248 r duration;
#X obj 52 170 sel 0 1 2 3;
#X floatatom 51 140 5 0 0 0 - - -, f 5;
#X obj 51 39 tgl 15 0 empty empty empty 17 7 0 10 -262144 -1 -1 0 1
;
#X obj 51 113 % 4;
#X text 239 7 A Counter!;
#X msg 52 216 60;
#X obj 119 86 + 1;
#X obj 51 61 metro 0.25 120 permin;
#X msg 99 216 65;
#X msg 148 215 70;
#X msg 199 214 75;
#X obj 51 86 i;
#X connect 1 0 0 0;
#X connect 1 1 0 1;
#X connect 3 0 1 2;
#X connect 4 0 9 0;
#X connect 4 1 12 0;
#X connect 4 2 13 0;
#X connect 4 3 14 0;
#X connect 5 0 4 0;
#X connect 6 0 11 0;
#X connect 7 0 5 0;
#X connect 9 0 1 0;
#X connect 10 0 15 1;
#X connect 11 0 15 0;
#X connect 12 0 1 0;
#X connect 13 0 1 0;
#X connect 14 0 1 0;
#X connect 15 0 7 0;
#X connect 15 0 10 0;
