#N canvas 484 23 865 841 10;
#X obj 223 363 noteout 1;
#X obj 340 317 r duration;
#X obj 223 234 sel 0 1 2 3;
#X floatatom 222 204 5 0 0 0 - - -, f 5;
#X obj 222 27 tgl 15 0 empty empty empty 17 7 0 10 -262144 -1 -1 0
1;
#X obj 222 177 % 4;
#X obj 290 150 + 1;
#X obj 222 125 metro 0.25 120 permin;
#X obj 222 150 i;
#X obj 315 279 random 127;
#X text 239 7 comment;
#X obj 140 278 random 50;
#X obj 230 279 random 80;
#X msg 421 280 60;
#X floatatom 150 174 5 0 0 0 - - -, f 5;
#X obj 467 42 metro 2 120 permin;
#X obj 467 64 i;
#X obj 535 63 + 50;
#X obj 467 108 i;
#X obj 467 130 s duration;
#X obj 467 86 % 600;
#X floatatom 403 64 5 0 0 0 - - -, f 5;
#X obj 544 188 metro 2 120 permin;
#X obj 544 278 i;
#X obj 590 277 + 50;
#X obj 544 247 moses 600;
#X obj 652 276 i;
#X obj 698 276 - 50;
#X obj 614 332 i;
#X obj 614 354 s duration;
#X obj 544 216 i;
#X obj 223 335 makenote 60;
#X text 384 457 ideas: -add a slider to change the center note (60)
-add a tempo slider -add a 'how many values' slider -add a sin wave
that will slide the note durations up and down on its own -if I could
have a separate out for a ckilk I could feed that to Ben and let him
play ad lib over it. It's a drum accompanist!!!;
#X connect 1 0 31 2;
#X connect 2 0 11 0;
#X connect 2 1 12 0;
#X connect 2 2 9 0;
#X connect 2 3 13 0;
#X connect 3 0 2 0;
#X connect 4 0 7 0;
#X connect 4 0 15 0;
#X connect 5 0 3 0;
#X connect 6 0 8 1;
#X connect 7 0 8 0;
#X connect 8 0 5 0;
#X connect 8 0 6 0;
#X connect 8 0 14 0;
#X connect 9 0 31 0;
#X connect 11 0 31 0;
#X connect 12 0 31 0;
#X connect 13 0 31 0;
#X connect 15 0 16 0;
#X connect 16 0 17 0;
#X connect 16 0 20 0;
#X connect 16 0 21 0;
#X connect 17 0 16 1;
#X connect 18 0 19 0;
#X connect 20 0 18 0;
#X connect 22 0 30 0;
#X connect 23 0 24 0;
#X connect 23 0 28 0;
#X connect 24 0 23 1;
#X connect 25 0 23 0;
#X connect 25 1 26 0;
#X connect 26 0 27 0;
#X connect 26 0 28 0;
#X connect 27 0 26 1;
#X connect 28 0 29 0;
#X connect 30 0 25 0;
#X connect 31 0 0 0;
#X connect 31 1 0 1;
